/* XPM */
static char * bottom_left_inactive_xpm[] = {
"8 8 2 1",
" 	c None",
"+	c #E7E7E7 s inactive_color_1",
"+++     ",
"+++     ",
"+++     ",
"+++     ",
"+++     ",
"++++++++",
"++++++++",
"++++++++"};
