/* XPM */
static char * bottom_right_active_xpm[] = {
"8 8 2 1",
" 	c None",
".	c #A3B8CD s active_color_1",
"     ...",
"     ...",
"     ...",
"     ...",
"     ...",
"........",
"........",
"........"};
