/* XPM */
static char * close_active_xpm[] = {
"21 17 3 1",
" 	c None",
".	c #A3B8CD s active_color_1",
"+	c #E7E7E7 s inactive_color_2",
".....................",
".....................",
"..+++++++++++++++++..",
"..+++++++++++++++++..",
"..+++++++++++++++++..",
"..+++++..+++..+++++..",
"..+++++...+...+++++..",
"..++++++.....++++++..",
"..+++++++...+++++++..",
"..++++++.....++++++..",
"..+++++...+...+++++..",
"..+++++..+++..+++++..",
"..+++++++++++++++++..",
"..+++++++++++++++++..",
"..+++++++++++++++++..",
".....................",
"....................."};
